<?xml version="1.0" standalone="no"?>
<!DOCTYPE svg PUBLIC "-//W3C//DTD SVG 20010904//EN"
 "http://www.w3.org/TR/2001/REC-SVG-20010904/DTD/svg10.dtd">
<svg version="1.0" xmlns="http://www.w3.org/2000/svg"
 width="627.000000pt" height="726.000000pt" viewBox="0 0 627.000000 726.000000"
 preserveAspectRatio="xMidYMid meet">

<g transform="translate(0.000000,726.000000) scale(0.100000,-0.100000)"
fill="#000000" stroke="none">
<path d="M4310 6067 c-30 -12 -69 -30 -86 -39 -91 -50 -180 -228 -101 -203 47
15 140 17 178 5 141 -47 159 -250 30 -337 -50 -34 -106 -47 -201 -46 -91 0
-148 14 -490 123 -257 82 -410 116 -625 140 -293 32 -697 -22 -1002 -136 -740
-275 -1314 -1021 -1432 -1861 -17 -115 -41 -390 -41 -458 0 -128 36 -459 66
-603 104 -502 364 -974 749 -1357 393 -391 838 -612 1385 -686 130 -18 441
-23 550 -10 288 36 384 53 630 112 297 72 605 188 683 257 28 25 20 48 -43
121 -129 150 -179 248 -217 421 -17 79 -18 149 -18 940 l0 855 23 75 c35 109
82 193 167 294 42 49 74 94 72 100 -8 23 -49 16 -164 -29 -310 -122 -430 -137
-690 -85 -147 29 -233 53 -438 125 -258 89 -355 109 -530 109 -159 1 -250 -19
-360 -77 -82 -44 -194 -152 -234 -226 -106 -199 -89 -436 40 -576 57 -62 124
-88 213 -83 86 5 135 27 198 89 40 40 47 53 53 102 8 63 0 127 -20 153 -12 17
-15 16 -49 -13 -86 -77 -241 -69 -289 14 -21 37 -32 117 -23 167 21 109 209
191 357 156 83 -20 172 -60 308 -138 68 -39 158 -86 200 -104 68 -29 88 -33
191 -36 65 -2 146 1 185 8 74 13 241 66 262 82 7 6 19 8 28 5 12 -5 15 -131
17 -979 3 -913 5 -977 22 -1038 27 -93 97 -228 155 -298 l51 -61 -30 -21
c-146 -104 -552 -199 -850 -200 -165 0 -424 40 -575 88 -279 91 -518 237 -749
462 -422 409 -681 921 -778 1535 -19 122 -22 181 -23 455 0 285 2 327 23 440
66 368 168 632 351 907 348 527 816 803 1363 803 186 0 394 -45 788 -170 314
-100 434 -123 630 -124 157 0 237 16 346 70 170 84 264 218 264 378 0 78 -29
189 -66 252 -84 146 -291 214 -454 151z"/>
<path d="M4327 4694 c-126 -30 -230 -103 -272 -189 -10 -22 -21 -68 -23 -101
-6 -82 30 -165 99 -229 70 -65 91 -59 103 29 8 66 54 145 97 168 45 24 129 24
177 -1 91 -47 132 -136 152 -329 22 -208 -41 -483 -221 -970 l-79 -214 0 -256
c0 -141 4 -252 8 -246 5 5 61 124 124 264 316 694 422 981 463 1255 19 125 19
223 0 346 -40 266 -158 421 -362 474 -70 18 -189 18 -266 -1z"/>
<path d="M1254 4222 c-6 -4 -13 -17 -17 -30 -5 -19 4 -30 51 -65 30 -23 78
-62 104 -87 46 -43 51 -51 83 -165 19 -66 82 -289 140 -495 141 -500 295 -956
461 -1367 75 -186 170 -425 210 -532 41 -107 81 -205 89 -218 26 -39 52 -29
80 30 32 69 224 603 342 952 164 486 263 740 286 732 15 -4 65 -129 161 -402
155 -440 270 -711 467 -1095 113 -220 137 -262 114 -194 -22 65 -34 283 -35
629 l-1 330 -64 162 c-77 192 -157 407 -250 669 l-68 191 -91 6 c-94 6 -200
35 -246 68 -58 41 -56 43 -155 -206 -51 -126 -122 -311 -158 -410 -36 -99 -88
-241 -115 -315 -27 -74 -75 -213 -107 -307 -32 -95 -62 -173 -66 -173 -5 0 -9
5 -9 11 0 22 -313 1009 -445 1404 -73 220 -146 451 -162 512 l-28 113 20 37
c13 23 53 61 108 101 90 66 105 92 68 112 -14 7 -74 7 -196 -1 -127 -8 -224
-8 -345 0 -197 13 -211 13 -226 3z"/>
<path d="M3252 3968 c-23 -55 -41 -102 -40 -103 13 -8 112 -44 114 -42 6 6
-16 219 -24 233 -4 8 -23 -25 -50 -88z"/>
<path d="M3657 1238 c-35 -12 -57 -25 -54 -32 3 -7 15 -48 27 -91 12 -44 25
-83 29 -88 4 -4 34 2 67 13 91 31 88 30 77 41 -6 6 -21 5 -44 -5 -73 -29 -76
-29 -88 5 -16 45 -16 45 34 59 44 12 63 26 52 37 -3 3 -27 -2 -53 -11 -38 -13
-49 -13 -56 -4 -17 28 -7 44 42 61 28 10 50 22 50 27 0 14 -16 11 -83 -12z"/>
<path d="M2570 1231 c0 -11 5 -23 12 -27 7 -4 8 -3 4 4 -5 8 1 12 18 12 14 0
23 -5 22 -12 -6 -39 -40 -125 -53 -134 -11 -10 -8 -14 18 -23 18 -6 35 -8 38
-5 3 4 1 9 -6 11 -8 3 -4 25 13 75 13 39 26 73 28 75 8 8 55 -44 48 -53 -4 -5
-3 -6 2 -1 6 4 11 16 13 26 2 16 -10 23 -65 41 -37 12 -73 24 -79 26 -8 4 -13
-2 -13 -15z"/>
<path d="M2764 1182 c11 -19 -6 -63 -28 -72 -18 -8 -18 -9 -3 -9 16 -1 17 -6
12 -33 -4 -18 -12 -36 -18 -40 -6 -4 -9 -9 -7 -11 6 -5 154 -35 158 -32 1 1
-1 13 -6 25 -6 15 -11 19 -16 12 -11 -18 -75 -15 -82 3 -11 26 5 65 26 65 10
0 22 -5 25 -10 8 -13 25 -3 25 14 0 9 -9 12 -24 9 -28 -6 -40 10 -32 42 5 18
11 22 28 18 13 -3 30 -12 39 -20 14 -11 18 -11 28 1 13 16 8 19 -59 31 -19 4
-43 9 -54 12 -11 3 -16 1 -12 -5z"/>
<path d="M3458 1185 c-5 -5 29 -195 36 -202 5 -5 125 23 133 31 15 14 -10 18
-53 7 -26 -7 -50 -8 -54 -4 -4 4 -13 37 -19 73 -18 99 -25 113 -43 95z"/>
<path d="M3368 1173 c-36 -4 -55 -23 -24 -23 18 0 23 -16 32 -102 5 -59 4 -68
-10 -68 -9 0 -16 -4 -16 -10 0 -11 24 -13 69 -4 33 7 43 24 13 24 -25 0 -49
149 -26 166 15 12 19 25 7 22 -5 -1 -25 -3 -45 -5z"/>
<path d="M2962 1133 c9 -10 23 -32 31 -49 l16 -32 -44 -34 c-47 -37 -48 -48
-6 -48 20 0 23 2 11 10 -12 7 -11 13 10 34 13 15 27 26 31 26 12 0 41 -59 34
-69 -3 -5 15 -11 39 -13 34 -2 42 0 34 9 -6 7 -14 11 -18 8 -12 -7 -42 44 -34
57 4 6 3 8 -4 4 -6 -3 -14 3 -18 16 -5 17 1 29 30 55 35 33 35 33 10 33 -14 0
-23 -4 -19 -10 3 -5 -4 -19 -16 -31 l-22 -22 -14 27 c-8 14 -11 31 -8 36 4 6
-8 10 -26 10 -30 0 -31 -1 -17 -17z"/>
<path d="M3213 1143 c-73 -4 -80 -7 -64 -31 7 -11 9 -11 14 2 4 9 15 16 26 16
17 0 20 -8 23 -76 2 -41 -1 -79 -7 -85 -5 -5 3 -9 23 -9 30 0 31 1 22 26 -6
14 -10 52 -10 85 0 52 2 59 19 59 11 0 23 -5 27 -11 4 -8 9 -7 15 2 12 20 11
29 -3 27 -7 -1 -46 -4 -85 -5z"/>
</g>
</svg>
